<svg width="155" height="40" viewBox="0 0 155 40" fill="none" xmlns="http://www.w3.org/2000/svg">
<g clip-path="url(#clip0_746_663)">
<path d="M19.5085 15.4259L17.0067 13.0033L16.9494 12.9512H14.2756L14.5727 13.2378L19.5085 18.0099L24.7414 12.9512H22.0676L19.5085 15.4259Z" fill="#94CAF8"/>
<path d="M19.5086 0.5C15.3494 0.5 11.998 3.7665 11.998 7.78319C11.998 9.27839 12.4723 10.6694 13.2802 11.8259H15.7611C14.6041 10.8257 13.8692 9.37737 13.8692 7.78319C13.8692 4.77718 16.397 2.33382 19.5086 2.33382C22.6201 2.33382 25.148 4.77718 25.148 7.78319C25.148 9.38258 24.4131 10.8309 23.256 11.8259H25.7369C26.5448 10.6694 27.0191 9.27839 27.0191 7.78319C27.0191 3.7665 23.6625 0.5 19.5086 0.5Z" fill="#AB42E3"/>
<path d="M19.5085 24.5741L17.0067 26.9967L16.9494 27.0488H14.2756L14.5727 26.7622L19.5085 21.9901L24.7414 27.0488H22.0676L19.5085 24.5741Z" fill="#94CAF8"/>
<path d="M19.5086 39.5C15.3494 39.5 11.998 36.2335 11.998 32.2168C11.998 30.7216 12.4723 29.3306 13.2802 28.1741H15.7611C14.6041 29.1743 13.8692 30.6226 13.8692 32.2168C13.8692 35.2228 16.397 37.6662 19.5086 37.6662C22.6201 37.6662 25.148 35.2228 25.148 32.2168C25.148 30.6174 24.4131 29.1691 23.256 28.1741H25.7369C26.5448 29.3306 27.0191 30.7216 27.0191 32.2168C27.0191 36.2335 23.6625 39.5 19.5086 39.5Z" fill="#AB42E3"/>
<path d="M24.0847 20L26.5083 17.4993L26.5604 17.442V14.7694L26.2737 15.0664L21.4995 20L26.5604 25.2306V22.558L24.0847 20Z" fill="#94CAF8"/>
<path d="M39.0171 20C39.0171 15.8426 35.7491 12.4928 31.7307 12.4928C30.2348 12.4928 28.8432 12.9669 27.6862 13.7744V16.2542C28.6869 15.0976 30.1358 14.3631 31.7307 14.3631C34.738 14.3631 37.1824 16.8898 37.1824 20C37.1824 23.1102 34.738 25.6369 31.7307 25.6369C30.1306 25.6369 28.6817 24.9024 27.6862 23.7458V26.2256C28.8432 27.0331 30.2348 27.5072 31.7307 27.5072C35.7491 27.5072 39.0171 24.1522 39.0171 20Z" fill="#AB42E3"/>
<path d="M14.9324 20L12.5088 17.4993L12.4567 17.442V14.7694L12.7433 15.0664L17.5175 20L12.4567 25.2306V22.558L14.9324 20Z" fill="#94CAF8"/>
<path d="M0 20C0 15.8426 3.26793 12.4928 7.28639 12.4928C8.78224 12.4928 10.1738 12.9669 11.3309 13.7744V16.2542C10.3302 15.0976 8.88127 14.3631 7.28639 14.3631C4.27906 14.3631 1.83463 16.8898 1.83463 20C1.83463 23.1102 4.27906 25.6369 7.28639 25.6369C8.88648 25.6369 10.3354 24.9024 11.3309 23.7458V26.2256C10.1738 27.0331 8.78224 27.5072 7.28639 27.5072C3.26793 27.5072 0 24.1522 0 20Z" fill="#AB42E3"/>
<path d="M45.4175 19.9531C45.4175 15.9104 48.5968 12.6491 52.5058 12.6491C55.5705 12.6491 58.1765 14.6809 59.1563 17.515H57.2383C56.3679 15.7176 54.5646 14.4673 52.5058 14.4673C49.5819 14.4673 47.2052 16.9263 47.2052 19.9479C47.2052 22.9695 49.5819 25.4285 52.5058 25.4285C54.5646 25.4285 56.3679 24.1782 57.2383 22.3808H59.1563C58.1713 25.2149 55.5653 27.2467 52.5058 27.2467C48.5968 27.2467 45.4175 23.9854 45.4175 19.9427V19.9531Z" fill="#94CAF8"/>
<path d="M71.66 22.4069C71.66 25.0795 69.5543 27.2728 66.9535 27.2728C64.3527 27.2728 62.2471 25.0743 62.2471 22.4069C62.2471 19.7395 64.3527 17.541 66.9535 17.541C69.5543 17.541 71.66 19.7135 71.66 22.4069ZM69.8983 22.4069C69.8983 20.7294 68.5744 19.3592 66.9483 19.3592C65.3222 19.3592 63.9983 20.7294 63.9983 22.4069C63.9983 24.0844 65.3222 25.4337 66.9483 25.4337C68.5744 25.4337 69.8983 24.0844 69.8983 22.4069Z" fill="#94CAF8"/>
<path d="M76.5071 27.278H74.7455V22.4121C74.7455 19.7187 76.8459 17.5462 79.4519 17.5462C82.0579 17.5462 84.1584 19.7187 84.1584 22.4121V27.278H82.3967V22.4121C82.3967 20.7346 81.0729 19.3644 79.4467 19.3644C77.8206 19.3644 76.4967 20.7346 76.4967 22.4121V27.278H76.5071Z" fill="#94CAF8"/>
<path d="M93.3524 17.541H95.2495L91.5021 27.278H89.6049L85.8314 17.541H87.7286L90.5379 24.819L93.3471 17.541H93.3524Z" fill="#94CAF8"/>
<path d="M96.9173 22.4069C96.9173 19.7343 99.023 17.541 101.624 17.541C104.225 17.541 106.33 19.7395 106.33 22.4069C106.33 22.7403 106.283 23.0425 106.236 23.329H98.8093C99.1741 24.5585 100.295 25.4546 101.619 25.4546C102.442 25.4546 103.172 25.1003 103.719 24.5585H105.845C105.09 26.1631 103.469 27.278 101.619 27.278C99.0125 27.278 96.9121 25.1055 96.9121 22.4121L96.9173 22.4069ZM98.8145 21.5108H104.438C104.047 20.2813 102.932 19.3853 101.629 19.3853C100.326 19.3853 99.1845 20.2813 98.8197 21.5108H98.8145Z" fill="#94CAF8"/>
<path d="M114.133 17.541V19.3592C112.512 19.3592 111.209 20.7294 111.209 22.4069V27.2728H109.426V22.4069C109.426 19.7135 111.553 17.541 114.133 17.541Z" fill="#94CAF8"/>
<path d="M123.78 27.2519V26.1892C122.977 26.8768 121.951 27.278 120.83 27.278C118.245 27.278 116.124 25.0795 116.124 22.4121C116.124 19.7447 118.25 17.5462 120.83 17.5462C123.41 17.5462 125.537 19.7187 125.537 22.4121V27.278C125.537 29.9506 123.436 32.1439 120.83 32.1439C118.636 32.1439 116.806 30.5862 116.28 28.4814H118.13C118.589 29.5442 119.637 30.2996 120.83 30.2996C122.451 30.2996 123.78 28.9503 123.78 27.2728V27.2467V27.2519ZM123.78 22.4069C123.78 20.7294 122.456 19.3592 120.83 19.3592C119.204 19.3592 117.906 20.7294 117.906 22.4069C117.906 24.0844 119.209 25.4337 120.83 25.4337C122.451 25.4337 123.78 24.0844 123.78 22.4069Z" fill="#94CAF8"/>
<path d="M128.351 22.4069C128.351 19.7343 130.451 17.541 133.057 17.541C135.663 17.541 137.764 19.7395 137.764 22.4069C137.764 22.7403 137.717 23.0425 137.67 23.329H130.243C130.608 24.5585 131.728 25.4546 133.052 25.4546C133.876 25.4546 134.605 25.1003 135.153 24.5585H137.279C136.523 26.1631 134.903 27.278 133.052 27.278C130.446 27.278 128.346 25.1055 128.346 22.4121L128.351 22.4069ZM130.248 21.5108H135.872C135.481 20.2813 134.366 19.3853 133.063 19.3853C131.76 19.3853 130.618 20.2813 130.253 21.5108H130.248Z" fill="#94CAF8"/>
<path d="M149.084 19.974L155.005 27.278H152.696L147.943 21.391L143.164 27.278H140.855L146.775 19.974L140.875 12.6699H143.164L147.943 18.5309L152.696 12.6699H155.005L149.084 19.974Z" fill="#94CAF8"/>
</g>
<defs>
<clipPath id="clip0_746_663">
<rect width="155" height="39" fill="white" transform="translate(0 0.5)"/>
</clipPath>
</defs>
</svg>
