<svg width="20" height="16" viewBox="0 0 20 16" fill="none" xmlns="http://www.w3.org/2000/svg">
<path d="M-0.000122219 11.7368C-0.00012221 11.9375 0.0751287 12.1299 0.209076 12.2718C0.343024 12.4137 0.524695 12.4934 0.714126 12.4934L10.4208 12.4934C10.5809 13.2456 10.9779 13.9177 11.5464 14.3992C12.1149 14.8807 12.8212 15.1431 13.5492 15.1431C14.2771 15.1431 14.9834 14.8807 15.5519 14.3992C16.1205 13.9177 16.5174 13.2456 16.6776 12.4934L19.2846 12.4934C19.474 12.4934 19.6557 12.4137 19.7896 12.2718C19.9236 12.1299 19.9988 11.9375 19.9988 11.7368C19.9988 11.5362 19.9236 11.3438 19.7896 11.2019C19.6557 11.06 19.474 10.9803 19.2846 10.9803L16.6776 10.9803C16.5174 10.2281 16.1205 9.55601 15.5519 9.07448C14.9834 8.59294 14.2771 8.33062 13.5492 8.33062C12.8212 8.33062 12.1149 8.59294 11.5464 9.07448C10.9779 9.55601 10.5809 10.2281 10.4208 10.9803L0.714126 10.9803C0.524695 10.9803 0.343024 11.06 0.209076 11.2019C0.0751286 11.3438 -0.000122228 11.5362 -0.000122219 11.7368ZM13.5706 9.84543C13.9238 9.84543 14.269 9.95636 14.5626 10.1642C14.8563 10.372 15.0851 10.6674 15.2203 11.013C15.3554 11.3586 15.3908 11.7389 15.3219 12.1058C15.253 12.4727 15.0829 12.8098 14.8332 13.0743C14.5835 13.3388 14.2653 13.5189 13.9189 13.5919C13.5726 13.6649 13.2135 13.6274 12.8873 13.4843C12.561 13.3411 12.2821 13.0987 12.0859 12.7877C11.8897 12.4766 11.785 12.1109 11.785 11.7368C11.785 11.2352 11.9731 10.7541 12.308 10.3994C12.6428 10.0447 13.097 9.84543 13.5706 9.84543Z" fill="#A19ED3"/>
<path d="M19.2858 3.50543L12.2362 3.50543C12.0468 3.50543 11.8651 3.58513 11.7312 3.72702C11.5972 3.8689 11.522 4.06134 11.522 4.26199C11.522 4.46264 11.5972 4.65508 11.7312 4.79696C11.8651 4.93885 12.0468 5.01855 12.2362 5.01855L19.2858 5.01855C19.4753 5.01855 19.657 4.93885 19.7909 4.79696C19.9248 4.65508 20.0001 4.46264 20.0001 4.26199C20.0001 4.06134 19.9248 3.8689 19.7909 3.72702C19.657 3.58513 19.4753 3.50543 19.2858 3.50543Z" fill="#A19ED3"/>
<path d="M3.32113 3.5049L0.714126 3.5049C0.524695 3.5049 0.343024 3.58461 0.209076 3.72649C0.0751286 3.86838 -0.000122228 4.06081 -0.000122219 4.26147C-0.00012221 4.46212 0.0751287 4.65456 0.209076 4.79644C0.343024 4.93832 0.524695 5.01803 0.714126 5.01803L3.32113 5.01803C3.49673 5.83413 3.95 6.5531 4.59436 7.03762C5.23872 7.52214 6.029 7.73825 6.81426 7.64466C7.59951 7.55107 8.3247 7.15434 8.8513 6.53027C9.3779 5.90619 9.669 5.09849 9.669 4.26147C9.669 3.42444 9.3779 2.61675 8.8513 1.99267C8.3247 1.36859 7.59951 0.971865 6.81426 0.878275C6.029 0.784686 5.23872 1.00079 4.59436 1.48531C3.95 1.96983 3.49673 2.68881 3.32113 3.5049ZM8.23516 4.26147C8.23513 4.63458 8.13093 4.99935 7.93565 5.30988C7.74037 5.62041 7.46275 5.86283 7.13772 6.00663C6.81269 6.15043 6.45476 6.18918 6.10899 6.11802C5.76321 6.04686 5.44502 5.86897 5.19447 5.60671C4.94391 5.34446 4.77218 5.00957 4.70088 4.64418C4.62958 4.27879 4.6619 3.89922 4.79377 3.55324C4.92564 3.20726 5.15117 2.91032 5.44198 2.69979C5.73279 2.48926 6.07589 2.37453 6.42811 2.37006C6.66414 2.36806 6.89822 2.41546 7.11691 2.50952C7.3356 2.60359 7.53461 2.74248 7.7025 2.91821C7.8704 3.09394 8.00388 3.30306 8.09528 3.53358C8.18669 3.76409 8.23422 4.01145 8.23516 4.26147Z" fill="#A19ED3"/>
</svg>
